<?xml version="1.0" encoding="UTF-8"?>
<!DOCTYPE svg PUBLIC "-//W3C//DTD SVG 1.1//EN" "http://www.w3.org/Graphics/SVG/1.1/DTD/svg11.dtd">
<!-- Creator: CorelDRAW -->
<svg xmlns="http://www.w3.org/2000/svg" xml:space="preserve" width="512px" height="512px" version="1.1" style="shape-rendering:geometricPrecision; text-rendering:geometricPrecision; image-rendering:optimizeQuality; fill-rule:evenodd; clip-rule:evenodd"
viewBox="0 0 512 512"
 xmlns:xlink="http://www.w3.org/1999/xlink"
 xmlns:xodm="http://www.corel.com/coreldraw/odm/2003">
 <defs>
  <style type="text/css">
   <![CDATA[
    .fil0 {fill:white}
    .fil1 {fill:#373535;fill-rule:nonzero}
   ]]>
  </style>
 </defs>
 <g id="Layer_x0020_1">
  <metadata id="CorelCorpID_0Corel-Layer"/>
  <rect class="fil0" width="512" height="512"/>
  <path class="fil1" d="M322.41 134.35l-94.86 0 -1.43 0 -163.54 0 0 243.31 67.64 0 0 -95.26 71.79 0 0 -51.42 -71.79 0 0 -37.96 95.9 0 67.65 0 11.73 0 11.73 0c39,0 63.51,22.43 63.51,62.81 0,40.03 -24.51,62.12 -63.51,62.12l-23.46 0 0 -82.14 -67.65 0 0 141.85 96.29 0c77.65,0 127.01,-51.43 127.01,-121.83 0,-71.44 -49.36,-121.48 -127.01,-121.48z"/>
 </g>
</svg>
